<svg xmlns="http://www.w3.org/2000/svg" width="341.5" height="344"><path fill="#045BA7" d="M54.625 287.224c-3.663-3.08-3.991-8.387-.728-11.849 44.761-47.558 68.533-75.814 89.829-104.099 6.282-8.826 9.972-15.921 7.121-19.84-.69-.744-2.41-1.868-5.294-2.849-5.671-2.022-15.15-3.256-25.547-4.432-21.047-1.355-34.176-3.519-42.746-5.791-8.538-2.284-12.769-4.665-15.399-7.132a11.802 11.802 0 0 1-.85-.891c-4.229-4.057-5.999-9.671-5.924-14.714.136-9.321 4.407-18.374 10.216-28.095 5.875-9.667 13.631-19.752 21.834-29.452 16.39-19.381 34.581-37.145 42.658-44.826v.005c3.457-3.29 9.074-3.304 12.552-.041 3.478 3.27 3.5 8.577.045 11.865C130.706 36.14 96.243 70.18 80.697 95.89c-5.235 8.437-8.386 14.289-7.853 19.738.075 2.148 2.865 4.566 6.031 5.64 5.92 1.958 18.49 4.626 42.457 6.146l.226.014.251.032c7.93.923 15.761 1.795 22.915 3.414 7.103 1.687 13.891 3.889 19.211 9.226 3.528 3.528 5.68 8.706 5.601 13.932-.115 8.242-3.978 16.412-11.116 26.671l-.154.219c-21.735 28.867-46.079 57.783-91.099 105.617-1.755 1.863-4.19 2.816-6.639 2.816-2.1-.003-4.212-.706-5.903-2.131zm154.04-55.926c0 9.782-7.86 17.676-17.674 17.676-9.655 0-17.556-7.895-17.556-17.676 0-9.663 7.901-17.544 17.556-17.544 9.814-.001 17.674 7.881 17.674 17.544zm40.555 0c0 9.782-7.892 17.676-17.57 17.676-9.755 0-17.619-7.895-17.619-17.676 0-9.663 7.865-17.544 17.619-17.544 9.678-.001 17.57 7.881 17.57 17.544zm40.656 0c0 9.782-7.886 17.676-17.579 17.676-9.764 0-17.668-7.895-17.668-17.676 0-9.663 7.904-17.544 17.668-17.544 9.693-.001 17.579 7.881 17.579 17.544zm-40.593 40.575c0 9.781-7.892 17.673-17.58 17.673-9.767 0-17.672-7.892-17.672-17.673 0-9.665 7.905-17.547 17.672-17.547 9.688 0 17.58 7.882 17.58 17.547z"/><path d="M168.024 231.298c0 9.782-7.891 17.676-17.624 17.676-9.667 0-17.56-7.895-17.56-17.676 0-9.663 7.894-17.544 17.56-17.544 9.733-.001 17.624 7.881 17.624 17.544zm40.659 40.575c0 9.781-7.889 17.673-17.579 17.673-9.764 0-17.669-7.892-17.669-17.673 0-9.665 7.905-17.547 17.669-17.547 9.69 0 17.579 7.882 17.579 17.547zm-40.596 0c0 9.781-7.889 17.673-17.579 17.673-9.764 0-17.669-7.892-17.669-17.673 0-9.665 7.905-17.547 17.669-17.547 9.69 0 17.579 7.882 17.579 17.547z" fill="#798CC6"/><g fill="#045BA7"><path d="M64.633 307.729v8.43h-.592c-.197-1.617-.538-2.903-1.036-3.865a5.77 5.77 0 0 0-2.126-2.281c-.918-.563-1.872-.848-2.854-.848-1.113 0-2.035.385-2.759 1.147-.731.757-1.095 1.626-1.095 2.593 0 .747.233 1.425.689 2.035.663.896 2.241 2.097 4.733 3.593 2.032 1.221 3.424 2.159 4.163 2.811a6.772 6.772 0 0 1 1.716 2.31c.403.889.599 1.814.599 2.787 0 1.845-.637 3.437-1.915 4.776-1.275 1.334-2.921 2.004-4.934 2.004a8.984 8.984 0 0 1-1.777-.166c-.332-.059-1.022-.275-2.062-.653-1.04-.38-1.703-.568-1.981-.568-.267 0-.479.092-.633.271-.154.179-.272.55-.346 1.115h-.592v-8.358h.592c.278 1.748.651 3.057 1.124 3.926.473.866 1.189 1.592 2.157 2.166a6.134 6.134 0 0 0 3.184.862c1.339 0 2.392-.394 3.168-1.183.776-.796 1.165-1.725 1.165-2.806 0-.602-.149-1.206-.443-1.816-.294-.61-.75-1.182-1.37-1.705-.416-.364-1.558-1.126-3.417-2.295-1.861-1.167-3.184-2.101-3.971-2.793-.784-.696-1.382-1.463-1.786-2.302-.407-.841-.611-1.761-.611-2.768 0-1.747.599-3.256 1.798-4.52 1.196-1.264 2.72-1.899 4.57-1.899 1.156 0 2.379.319 3.672.954.599.301 1.02.448 1.269.448a.89.89 0 0 0 .678-.276c.181-.187.321-.56.43-1.126h.593zm8.004 7.982v3.706c1.23-2.472 2.494-3.706 3.787-3.706.586 0 1.074.199 1.459.599.384.403.579.868.579 1.395 0 .468-.14.864-.418 1.187-.276.326-.608.484-.993.484-.375 0-.796-.204-1.26-.62-.468-.411-.809-.619-1.037-.619-.19 0-.398.12-.624.359-.482.493-.977 1.303-1.492 2.426v7.892c0 .909.104 1.599.307 2.065.14.325.384.595.733.811.357.215.864.323 1.529.323v.645h-7.523v-.645c.748 0 1.305-.133 1.669-.397.269-.19.452-.495.559-.916.054-.204.081-.784.081-1.743v-6.377c0-1.919-.034-3.062-.104-3.426-.07-.369-.197-.633-.385-.8a1.013 1.013 0 0 0-.698-.251c-.333 0-.706.088-1.122.266l-.161-.644 4.441-2.015h.673zm11.184 0v13.23c0 1.031.068 1.714.201 2.058.133.341.332.592.594.762.26.169.737.253 1.434.253v.645h-7.136v-.645c.717 0 1.198-.079 1.443-.233.244-.16.443-.415.586-.773.145-.362.219-1.049.219-2.067v-6.347c0-1.786-.05-2.94-.149-3.466-.075-.384-.192-.654-.349-.803-.163-.148-.382-.221-.66-.221-.299 0-.66.088-1.09.266l-.224-.644 4.425-2.015h.706zm-1.329-8.609c.445 0 .832.175 1.144.53.317.355.475.782.475 1.286 0 .502-.158.934-.475 1.294-.312.357-.699.538-1.144.538-.452 0-.837-.181-1.156-.538a1.867 1.867 0 0 1-.482-1.294c0-.504.158-.932.475-1.286.312-.355.702-.53 1.163-.53zm30.354 18.821l.529.122-1.863 6.613H94.671v-.665h.818c.92 0 1.578-.332 1.972-1.007.226-.379.337-1.27.337-2.656v-15.727c0-1.524-.147-2.476-.448-2.863-.416-.524-1.038-.789-1.861-.789h-.818v-.665h9.849v.665c-1.153-.012-1.962.11-2.433.357-.462.253-.783.572-.952.957-.169.382-.258 1.3-.258 2.749v15.315c0 .992.088 1.675.258 2.049.127.253.326.436.593.553.269.122 1.101.181 2.503.181h1.587c1.667 0 2.84-.138 3.514-.414.671-.273 1.289-.764 1.845-1.463.555-.701 1.111-1.807 1.669-3.312zm10.06 4.366c-1.508 1.302-2.453 2.06-2.838 2.263a3.98 3.98 0 0 1-1.846.45c-1.017 0-1.854-.391-2.514-1.169-.658-.779-.986-1.802-.986-3.071 0-.805.163-1.499.482-2.089.441-.812 1.2-1.581 2.286-2.299 1.085-.72 2.89-1.59 5.416-2.624v-.648c0-1.642-.233-2.766-.699-3.376-.466-.611-1.144-.921-2.031-.921-.674 0-1.207.204-1.605.61-.405.409-.606.88-.606 1.404l.029 1.043c0 .554-.127.977-.378 1.277-.249.299-.577.448-.986.448-.394 0-.719-.157-.97-.466-.251-.314-.378-.74-.378-1.276 0-1.031.471-1.976 1.411-2.842.941-.862 2.261-1.294 3.964-1.294 1.303 0 2.375.244 3.209.737.631.373 1.095.954 1.393 1.744.195.513.291 1.57.291 3.163v5.59c0 1.569.025 2.53.079 2.883.052.355.14.59.265.71a.57.57 0 0 0 .427.184.785.785 0 0 0 .443-.129c.229-.153.66-.589 1.3-1.311v1.009c-1.194 1.795-2.34 2.695-3.428 2.695-.527 0-.945-.204-1.255-.613-.305-.407-.466-1.1-.475-2.082zm0-1.17v-6.272c-1.619.717-2.659 1.23-3.132 1.526-.843.529-1.447 1.081-1.809 1.655a3.45 3.45 0 0 0-.547 1.886c0 .862.231 1.581.69 2.148.459.569.988.855 1.587.855.815 0 1.882-.599 3.211-1.798z"/><path d="M132.917 319.198c1.723-2.325 3.365-3.487 4.925-3.487.801 0 1.49.224 2.069.674.577.45 1.038 1.192 1.377 2.221.238.717.355 1.822.355 3.308v7.028c0 1.04.074 1.75.221 2.121.118.296.312.529.574.699.26.169.741.253 1.452.253v.645h-7.27v-.645h.307c.683 0 1.162-.117 1.434-.35.272-.233.464-.578.568-1.031.045-.185.066-.746.066-1.691V322.2c0-1.499-.174-2.586-.52-3.263-.346-.678-.936-1.013-1.757-1.013-1.273 0-2.539.776-3.801 2.334v8.683c0 1.115.057 1.8.177 2.067.149.346.355.599.62.764.26.16.791.242 1.594.242v.645h-7.265v-.645h.321c.746 0 1.253-.212 1.515-.639.262-.427.393-1.238.393-2.434v-6.115c0-1.972-.041-3.179-.122-3.609-.079-.432-.201-.728-.368-.882-.165-.156-.389-.233-.663-.233-.303 0-.663.088-1.076.266l-.242-.644 4.425-2.015h.692v3.489z"/><path d="M148.881 307.102v16.392l3.738-3.83c.791-.814 1.251-1.327 1.379-1.542a.843.843 0 0 0 .129-.43.835.835 0 0 0-.267-.624c-.177-.175-.469-.274-.873-.296v-.572h6.383v.572c-.877.022-1.606.174-2.191.445-.581.28-1.219.77-1.915 1.478l-3.77 3.898 3.77 5.339c1.049 1.475 1.755 2.411 2.116 2.802.513.565.963.933 1.348 1.099.267.122.733.18 1.396.18v.645h-7.137v-.645c.405-.015.681-.082.826-.207.144-.125.217-.303.217-.53 0-.276-.215-.722-.64-1.329l-4.508-6.454v5.464c0 1.066.065 1.768.199 2.105.136.332.326.577.572.719.244.145.78.217 1.603.233v.645h-7.476v-.645c.749 0 1.309-.103 1.685-.307.226-.131.396-.335.511-.608.163-.398.242-1.081.242-2.049v-14.997c0-1.904-.036-3.066-.113-3.494-.072-.423-.197-.716-.366-.877-.174-.165-.396-.242-.676-.242-.224 0-.56.097-1.01.301l-.272-.627 4.364-2.013h.736zm19.876 23.187c-1.508 1.302-2.453 2.06-2.838 2.263a3.973 3.973 0 0 1-1.845.45c-1.015 0-1.855-.391-2.512-1.169-.656-.779-.988-1.802-.988-3.071 0-.805.162-1.499.484-2.089.439-.812 1.2-1.581 2.286-2.299 1.083-.72 2.89-1.59 5.413-2.624v-.648c0-1.642-.233-2.766-.699-3.376-.466-.611-1.142-.921-2.03-.921-.672 0-1.208.204-1.603.61-.405.409-.608.88-.608 1.404l.032 1.043c0 .554-.125.977-.375 1.277a1.23 1.23 0 0 1-.988.448c-.398 0-.719-.157-.97-.466-.249-.314-.375-.74-.375-1.276 0-1.031.47-1.976 1.411-2.842.938-.862 2.259-1.294 3.961-1.294 1.303 0 2.372.244 3.207.737.631.373 1.097.954 1.395 1.744.195.513.29 1.57.29 3.163v5.59c0 1.569.027 2.53.079 2.883.052.355.143.59.267.71a.572.572 0 0 0 .425.184.812.812 0 0 0 .449-.129c.222-.153.656-.589 1.298-1.311v1.009c-1.199 1.795-2.343 2.695-3.432 2.695-.525 0-.943-.204-1.25-.613-.314-.407-.473-1.1-.484-2.082zm0-1.17v-6.272c-1.615.717-2.657 1.23-3.127 1.526-.846.529-1.452 1.081-1.813 1.655a3.465 3.465 0 0 0-.545 1.886c0 .862.229 1.581.688 2.148.461.569.99.855 1.589.855.811 0 1.881-.599 3.208-1.798zm30.802-20.832l.24 5.716h-.611c-.115-1.009-.275-1.725-.477-2.156-.332-.697-.775-1.208-1.324-1.535-.552-.333-1.278-.495-2.176-.495h-3.062v18.619c0 1.499.145 2.435.435 2.806.406.502 1.03.753 1.877.753h.75v.665h-9.222v-.665h.774c.915 0 1.569-.312 1.954-.932.237-.387.355-1.259.355-2.627v-18.619h-2.616c-1.013 0-1.736.086-2.166.253-.554.226-1.031.665-1.429 1.31-.394.648-.629 1.522-.703 2.624h-.608l.255-5.716h17.754zm1.735 14.108c-.009 2.444.52 4.362 1.589 5.752 1.072 1.393 2.328 2.088 3.77 2.088.962 0 1.798-.299 2.511-.889.707-.595 1.306-1.61 1.788-3.048l.498.359c-.226 1.642-.877 3.137-1.958 4.484-1.081 1.35-2.431 2.024-4.059 2.024-1.761 0-3.272-.771-4.528-2.311-1.256-1.537-1.886-3.609-1.886-6.211 0-2.816.642-5.008 1.933-6.587 1.286-1.576 2.903-2.365 4.853-2.365 1.646 0 2.998.61 4.057 1.827 1.058 1.217 1.59 2.842 1.59 4.877h-10.158zm0-1.041h6.799c-.052-1.054-.163-1.797-.334-2.227-.27-.674-.667-1.199-1.197-1.581-.527-.388-1.081-.577-1.66-.577-.886 0-1.677.385-2.384 1.161-.695.769-1.105 1.846-1.224 3.224zm16.64-14.252v21.839c0 1.031.063 1.712.199 2.046.136.338.339.59.619.765.276.174.796.262 1.556.262v.645h-7.205v-.645c.674 0 1.133-.079 1.38-.233.246-.16.438-.415.577-.773.139-.362.207-1.049.207-2.067v-14.956c0-1.859-.036-2.998-.109-3.426-.076-.423-.196-.712-.364-.87a.879.879 0 0 0-.633-.235c-.278 0-.631.1-1.058.287l-.272-.627 4.378-2.013h.725zm6.015 15.293c-.009 2.444.52 4.362 1.587 5.752 1.072 1.393 2.329 2.088 3.774 2.088.961 0 1.798-.299 2.512-.889.71-.595 1.305-1.61 1.786-3.048l.498.359c-.226 1.642-.878 3.137-1.958 4.484-1.079 1.35-2.434 2.024-4.057 2.024-1.764 0-3.275-.771-4.532-2.311-1.257-1.537-1.886-3.609-1.886-6.211 0-2.816.647-5.008 1.936-6.587 1.285-1.576 2.903-2.365 4.848-2.365 1.649 0 3.003.61 4.061 1.827 1.057 1.217 1.588 2.842 1.588 4.877h-10.157zm0-1.041h6.803c-.052-1.054-.162-1.797-.337-2.227-.266-.674-.665-1.199-1.193-1.581-.53-.388-1.081-.577-1.66-.577-.886 0-1.682.385-2.383 1.161-.702.769-1.108 1.846-1.23 3.224zm24.068 5.052c-.393 2.167-1.175 3.838-2.328 5.002-1.153 1.172-2.434 1.757-3.835 1.757-1.667 0-3.121-.787-4.362-2.354-1.239-1.574-1.86-3.693-1.86-6.364 0-2.589.688-4.694 2.061-6.311 1.374-1.617 3.026-2.426 4.952-2.426 1.438 0 2.627.427 3.559 1.285.932.856 1.398 1.748 1.398 2.668 0 .457-.131.826-.398 1.105-.258.283-.628.423-1.095.423-.633 0-1.108-.228-1.429-.68-.181-.253-.303-.733-.362-1.439-.059-.708-.276-1.248-.651-1.617-.371-.361-.891-.54-1.556-.54-1.067 0-1.928.441-2.58 1.33-.865 1.176-1.3 2.727-1.3 4.656 0 1.965.432 3.699 1.291 5.2.862 1.506 2.022 2.255 3.489 2.255 1.045 0 1.99-.398 2.823-1.203.588-.552 1.161-1.552 1.718-2.998l.465.251zm8.76-10.695c2.225 0 4.007.948 5.36 2.843 1.144 1.614 1.714 3.473 1.714 5.567 0 1.478-.312 2.969-.945 4.477-.633 1.511-1.497 2.651-2.609 3.417a6.344 6.344 0 0 1-3.695 1.152c-2.212 0-3.971-.993-5.278-2.965-1.104-1.667-1.65-3.536-1.65-5.61 0-1.51.334-3.011 1.004-4.504.665-1.487 1.546-2.594 2.636-3.305 1.089-.715 2.247-1.072 3.463-1.072zm-.497 1.169c-.566 0-1.135.188-1.709.568-.57.376-1.031 1.036-1.384 1.984-.358.945-.529 2.164-.529 3.649 0 2.397.42 4.461 1.275 6.2.85 1.738 1.967 2.605 3.361 2.605 1.036 0 1.89-.477 2.564-1.438.67-.957 1.013-2.603 1.013-4.939 0-2.924-.565-5.226-1.687-6.904-.761-1.149-1.729-1.725-2.904-1.725zm13.571 2.338c1.067-1.2 1.7-1.89 1.895-2.069a5.618 5.618 0 0 1 1.555-1.061 3.955 3.955 0 0 1 1.651-.378c.918 0 1.709.299 2.374.9.661.598 1.104 1.466 1.33 2.607 1.099-1.438 2.031-2.384 2.795-2.834.755-.45 1.537-.674 2.339-.674.782 0 1.474.224 2.075.674.607.45 1.081 1.183 1.439 2.203.235.694.353 1.784.353 3.272v7.082c0 1.031.068 1.735.207 2.121.109.263.308.486.593.672.29.187.76.28 1.41.28v.645h-7.249v-.645h.308c.628 0 1.121-.138 1.474-.416.249-.19.421-.495.529-.916.041-.204.063-.787.063-1.741v-7.082c0-1.343-.144-2.288-.434-2.84-.416-.769-1.085-1.149-2.004-1.149-.565 0-1.135.157-1.709.475-.57.317-1.262.907-2.076 1.768l-.032.199.032.776v7.853c0 1.123.054 1.825.168 2.103.112.273.325.504.637.69.308.187.836.28 1.582.28v.645h-7.425v-.645c.814 0 1.371-.109 1.677-.323.303-.216.516-.54.634-.97.053-.204.081-.8.081-1.78v-7.082c0-1.343-.176-2.309-.529-2.894-.471-.769-1.131-1.151-1.972-1.151-.578 0-1.153.174-1.718.522-.886.527-1.574 1.119-2.053 1.777v8.828c0 1.076.068 1.78.204 2.103.131.321.33.563.592.728.258.16.791.242 1.592.242v.645h-7.263v-.645c.674 0 1.144-.082 1.411-.242.266-.165.47-.423.61-.773.14-.353.208-1.04.208-2.058v-6.293c0-1.809-.05-2.978-.145-3.504-.073-.394-.19-.67-.353-.819-.163-.148-.379-.221-.655-.221-.303 0-.661.088-1.076.266l-.24-.644 4.423-2.015h.692v3.508z"/></g></svg>